<?xml version="1.0" standalone="no"?><!DOCTYPE svg PUBLIC "-//W3C//DTD SVG 1.1//EN" "http://www.w3.org/Graphics/SVG/1.1/DTD/svg11.dtd"><svg t="1652405055797" class="icon" viewBox="0 0 1024 1024" version="1.1" xmlns="http://www.w3.org/2000/svg" p-id="4655" xmlns:xlink="http://www.w3.org/1999/xlink" width="200" height="200"><defs><style type="text/css">@font-face { font-family: feedback-iconfont; src: url("//at.alicdn.com/t/font_1031158_u69w8yhxdu.woff2?t=1630033759944") format("woff2"), url("//at.alicdn.com/t/font_1031158_u69w8yhxdu.woff?t=1630033759944") format("woff"), url("//at.alicdn.com/t/font_1031158_u69w8yhxdu.ttf?t=1630033759944") format("truetype"); }
</style></defs><path d="M512 512m-362.666667 0a362.666667 362.666667 0 1 0 725.333334 0 362.666667 362.666667 0 1 0-725.333334 0Z" fill="#FF6D00" p-id="4656"></path><path d="M512 149.333333l6.890667 0.064C716.010667 153.066667 874.666667 314.005333 874.666667 512c0 28.757333-3.349333 56.704-9.664 83.541333C806.229333 709.504 670.293333 789.333333 512 789.333333s-294.229333-79.829333-352.981333-193.792A362.794667 362.794667 0 0 1 149.333333 512c0-200.298667 162.368-362.666667 362.666667-362.666667z" fill="#FB8B18" p-id="4657"></path><path d="M512 149.333333c157.12 0 290.901333 99.904 341.269333 239.658667C849.706667 528.085333 698.282667 640 512 640c-188.522667 0-341.333333-114.624-341.333333-256l0.042666 5.013333C221.077333 249.258667 354.88 149.333333 512 149.333333z" fill="#FFA243" p-id="4658"></path><path d="M277.333333 288a234.666667 138.666667 0 1 0 469.333334 0 234.666667 138.666667 0 1 0-469.333334 0Z" fill="#FFB468" p-id="4659"></path><path d="M405.333333 213.333333a106.666667 64 0 1 0 213.333334 0 106.666667 64 0 1 0-213.333334 0Z" fill="#FFD3A5" p-id="4660"></path><path d="M392.576 413.589333l-12.586667 114.645334-68.245333-92.992-114.645333-12.586667 92.992-68.245333 12.586666-114.645334 68.245334 92.992 114.645333 12.586667zM610.090667 413.589333l12.586666 114.645334 68.245334-92.992 114.645333-12.586667-92.992-68.245333-12.586667-114.645334-68.245333 92.992-114.645333 12.586667z" fill="#C30000" p-id="4661"></path><path d="M392.576 392.256l-12.586667 114.645333-68.245333-92.992-114.645333-12.586666 92.992-68.245334 12.586666-114.645333 68.245334 92.992 114.645333 12.586667zM610.090667 392.256l12.586666 114.645333 68.245334-92.992 114.645333-12.586666-92.992-68.245334-12.586667-114.645333-68.245333 92.992-114.645333 12.586667z" fill="#FF4D37" p-id="4662"></path><path d="M512 746.666667c94.72 0.042667 150.912-59.52 167.061333-138.730667 0.938667-4.544 1.728-12.608 2.410667-24.170667a21.333333 21.333333 0 0 0-25.536-22.144c-34.666667 6.997333-82.666667 10.496-143.936 10.496-61.290667 0-109.269333-3.498667-143.957333-10.496a21.333333 21.333333 0 0 0-25.514667 22.122667c0.661333 11.52 1.450667 19.52 2.368 24.042667 16.106667 79.296 72.362667 138.837333 167.104 138.88z" fill="#C50B0B" p-id="4663"></path><path d="M322.005333 574.08a42.666667 42.666667 0 0 0-0.768 10.88l0.554667 8.682667c0.618667 8 1.322667 14.037333 2.197333 18.389333 19.242667 94.72 88.106667 155.925333 188.010667 155.968 99.84 0.042667 168.661333-61.077333 187.968-155.797333 0.917333-4.437333 1.621333-10.538667 2.24-18.645334l0.554667-8.490666a42.666667 42.666667 0 0 0-51.050667-44.373334c-33.066667 6.677333-79.722667 10.090667-139.712 10.090667-56.512 0-101.205333-3.008-133.866667-8.96l-6.058666-1.173333a42.602667 42.602667 0 0 0-49.322667 30.336l-0.746667 3.093333z m20.906667 4.224a21.333333 21.333333 0 0 1 22.677333-17.045333l2.453334 0.362666 6.272 1.194667c34.112 6.186667 80 9.301333 137.685333 9.301333 61.269333 0 109.269333-3.498667 143.936-10.496a21.333333 21.333333 0 0 1 25.536 19.626667v2.517333l-0.256 4.16a168.832 168.832 0 0 1-2.133333 20.010667C662.890667 687.168 606.72 746.709333 512 746.666667c-94.72-0.042667-150.997333-59.584-167.104-138.88l-0.661333-4.053334c-0.64-4.693333-1.216-11.349333-1.706667-19.989333a21.333333 21.333333 0 0 1 0.384-5.44z" fill="#FFB468" p-id="4664"></path><path d="M512 661.333333c53.866667 0 99.946667 16.64 118.848 40.192C602.453333 729.6 562.773333 746.666667 512 746.666667c-50.709333-0.021333-90.410667-17.109333-118.826667-45.141334C412.074667 677.973333 458.154667 661.333333 512 661.333333z" fill="#FF2A00" p-id="4665"></path></svg>